<svg width="448" height="82" viewBox="0 0 448 82" fill="none" xmlns="http://www.w3.org/2000/svg">
<g clip-path="url(#clip0_2160_1112)">
<path d="M37.727 7.78784C19.3913 7.78784 4.52686 22.6461 4.52686 40.9721C4.52686 59.2981 19.3913 74.1564 37.7251 74.1564C56.0588 74.1564 70.9233 59.3001 70.9233 40.9721C70.9233 22.6441 56.0607 7.78784 37.727 7.78784Z" fill="white"/>
<path d="M43.3331 48.3048H40.9878V51.2021H43.3331C43.5396 51.2021 43.711 51.1261 43.8415 50.9782C43.972 50.8224 44.0343 50.6257 44.0343 50.3843V49.1362C44.0343 48.8948 43.972 48.6962 43.8415 48.5385C43.711 48.3807 43.5396 48.3048 43.3331 48.3048Z" fill="#151516"/>
<path d="M34.5052 48.3048H32.7871C32.5631 48.3048 32.3917 48.3807 32.2573 48.5385C32.1268 48.6962 32.0664 48.8948 32.0664 49.1362V54.3291C32.0664 54.5647 32.1287 54.7614 32.2573 54.9191C32.3917 55.0826 32.5651 55.1664 32.7871 55.1664H34.5052C34.7117 55.1664 34.887 55.0826 35.0194 54.9191C35.1597 54.7614 35.2259 54.5647 35.2259 54.3291V49.1362C35.2259 48.8948 35.1597 48.6962 35.0194 48.5385C34.887 48.3807 34.7136 48.3048 34.5052 48.3048Z" fill="#151516"/>
<path d="M25.9151 48.3048H23.4724V51.4474H25.9151C26.1216 51.4474 26.2988 51.3676 26.4313 51.2118C26.5657 51.0522 26.6358 50.8574 26.6358 50.6141V49.1362C26.6358 48.8889 26.5657 48.6962 26.4313 48.5385C26.2988 48.3807 26.1216 48.3048 25.9151 48.3048Z" fill="#151516"/>
<path d="M37.5148 3.46527C16.7968 3.46527 0 20.255 0 40.9643C0 61.6736 16.7968 78.4633 37.5148 78.4633C58.2327 78.4633 75.0295 61.6736 75.0295 40.9643C75.0295 20.255 58.2347 3.46527 37.5148 3.46527ZM23.4937 20.8197H42.778L39.823 25.4966L20.5446 25.5063L23.4937 20.8197ZM19.5823 54.6387C19.5823 55.2384 19.3758 55.7486 18.9629 56.1633C18.5441 56.5858 18.0298 56.7961 17.4416 56.7961H14.8976C14.2938 56.7961 13.7873 56.5936 13.3841 56.1906C12.977 55.7875 12.7783 55.289 12.7783 54.6757V53.6691H14.3405L14.5704 54.6017C14.6755 54.9853 14.9385 55.1839 15.3729 55.1839H17.0929C17.3072 55.1839 17.4805 55.106 17.6188 54.9444C17.7474 54.7906 17.8117 54.5861 17.8117 54.3525V53.2446C17.8117 52.7014 17.5721 52.4249 17.0929 52.4249H14.9307C14.3405 52.4249 13.8263 52.2185 13.4016 51.796C12.9867 51.3734 12.7783 50.8653 12.7783 50.2694V48.8072C12.7783 48.2211 12.9867 47.7168 13.4016 47.2982C13.8282 46.8757 14.3405 46.6673 14.9307 46.6673H17.4396C18.0279 46.6673 18.5324 46.8698 18.9454 47.2709C19.3544 47.6759 19.5531 48.1744 19.5531 48.7819V49.6912H18.0006L17.7669 48.8675C17.6461 48.4742 17.3734 48.2834 16.9741 48.2834H15.2794C15.0573 48.2834 14.884 48.3613 14.7535 48.521C14.6132 48.6806 14.5548 48.8792 14.5548 49.1207V49.9735C14.5548 50.505 14.7944 50.7718 15.2794 50.7718H17.4396C18.024 50.7718 18.5285 50.984 18.9512 51.4124C19.3739 51.8388 19.5823 52.3431 19.5823 52.9272V54.6407V54.6387ZM28.4258 50.9295C28.4258 51.5253 28.2135 52.0296 27.7967 52.4482C27.3681 52.8669 26.8539 53.0791 26.2617 53.0791H23.4704V56.7961H21.6802V46.6673H26.2617C26.8558 46.6673 27.3681 46.8757 27.7967 47.2982C28.2135 47.7129 28.4258 48.2172 28.4258 48.8013V50.9295ZM37.0103 54.6231C37.0103 55.2384 36.8057 55.7486 36.3752 56.1633C35.9526 56.5858 35.4539 56.7961 34.85 56.7961H32.4288C31.8269 56.7961 31.3146 56.5839 30.8938 56.1633C30.475 55.7486 30.2608 55.2384 30.2608 54.6231V48.8013C30.2608 48.2211 30.475 47.7129 30.8938 47.2982C31.3146 46.8757 31.8249 46.6673 32.4288 46.6673H34.85C35.4539 46.6673 35.9526 46.8757 36.3752 47.2904C36.8057 47.6973 37.0103 48.2114 37.0103 48.7994V54.6212V54.6231ZM37.4563 44.2568L13.0335 44.2627L18.9726 34.8816H14.6132L17.5799 30.193H35.7441L32.7755 34.8816H24.6313L21.6218 39.5741H34.7332L46.7206 20.6561L61.6416 44.2549H56.0102L53.0455 39.5702H44.2253L47.192 34.8719H50.0827L46.7206 29.5446L37.4563 44.2549V44.2568ZM44.3363 56.798L42.6865 52.8338H40.9859V56.798H39.1939V46.6693H43.6741C44.274 46.6693 44.7844 46.8776 45.1993 47.3001C45.6181 47.7149 45.8304 48.2211 45.8304 48.8033V50.5693C45.8304 51.0288 45.7038 51.4474 45.4506 51.8174C45.1876 52.1834 44.8525 52.4424 44.463 52.6137L46.2395 56.798H44.3344H44.3363ZM53.9279 48.3048H51.3274V56.798H49.5334V48.3048H46.9582V46.6693H53.9279V48.3048ZM62.0487 54.6387C62.0487 55.2384 61.8403 55.7486 61.4234 56.1633C61.0007 56.5858 60.4904 56.7961 59.8904 56.7961H57.3562C56.7504 56.7961 56.2517 56.5936 55.8407 56.1906C55.4375 55.7875 55.2329 55.289 55.2329 54.6757V53.6691H56.7932L57.027 54.6017C57.1361 54.9853 57.399 55.1839 57.8295 55.1839H59.5476C59.7638 55.1839 59.9449 55.106 60.0755 54.9444C60.2021 54.7906 60.2663 54.5861 60.2663 54.3525V53.2446C60.2663 52.7014 60.0287 52.4249 59.5456 52.4249H57.3873C56.7913 52.4249 56.277 52.2185 55.8641 51.796C55.4472 51.3734 55.231 50.8653 55.231 50.2694V48.8072C55.231 48.2211 55.4472 47.7168 55.8641 47.2982C56.277 46.8757 56.7913 46.6673 57.3873 46.6673H59.8904C60.4904 46.6673 60.989 46.8698 61.4039 47.2709C61.811 47.6759 62.0175 48.1744 62.0175 48.7819V49.6912H60.4592L60.2235 48.8675C60.0988 48.4742 59.832 48.2834 59.4346 48.2834H57.7341C57.5179 48.2834 57.3347 48.3613 57.2081 48.521C57.0776 48.6806 57.0114 48.8792 57.0114 49.1207V49.9735C57.0114 50.505 57.2549 50.7718 57.7341 50.7718H59.8904C60.4806 50.7718 60.9871 50.984 61.4039 51.4124C61.8403 51.8388 62.0487 52.3431 62.0487 52.9272V54.6407V54.6387ZM63.1434 47.1697H62.7616V47.9816H62.5688V47.1697H62.187V47.0022H63.1415V47.1697H63.1434ZM64.2829 47.9816V47.3761C64.2829 47.3488 64.2829 47.3177 64.2888 47.269C64.2712 47.3079 64.2673 47.343 64.242 47.3761L63.9304 47.857H63.9011L63.5817 47.3683C63.5642 47.341 63.5427 47.304 63.5213 47.2709C63.5213 47.3099 63.5408 47.343 63.5408 47.378V47.9836H63.3752V47.0042H63.5408L63.9245 47.5961L64.3102 47.0042H64.4602V47.9836H64.2829V47.9816Z" fill="#151516"/>
<path d="M141.568 70.93H176.79L190.875 46.5992H174.634L168.679 56.8837L156.756 56.8935L175.168 25.0468H187.085L180.585 36.2835L196.836 36.2991L211.484 11.0005L175.655 10.9947C170.341 10.9947 165.428 13.8277 162.769 18.4267L136.979 62.9723C134.932 66.5082 137.483 70.932 141.57 70.932" fill="#151516"/>
<path d="M264 18.9077C266.034 15.3971 263.503 11.0064 259.446 11.0025C250.386 10.9966 239.571 10.9869 233.032 11.0083C227.502 11.0258 222.432 13.9601 219.652 18.7168C218.265 21.0923 215.369 26.0846 211.876 32.1148H228.605L232.767 24.9066L244.309 24.9028L237.697 36.3458L219.555 36.34C213.448 36.3341 207.797 39.5682 204.71 44.8351C199.252 54.1461 191.059 68.1301 189.452 70.93H233.86L241.913 57.0103H214.206L218.026 50.4174H245.727C247.552 47.2612 257.769 29.6595 263.998 18.9057" fill="#151516"/>
<path d="M119.368 35.347L125.327 25.0468H153.497L161.657 10.9947H125.969C120.562 10.9947 115.564 13.8764 112.858 18.5552L82.531 70.93H98.7824L111.265 49.3933H139.429L147.537 35.347H119.366H119.368Z" fill="#151516"/>
<path d="M318 11.0064L303.194 36.4373L310.908 36.4996L302.95 50.4194L295.221 50.3824L283.479 70.93H267.284L279.044 50.3843L265.693 50.4019C259.134 50.4096 255.018 43.3261 258.273 37.6348L273.498 11.0064L289.572 10.9927L275.121 36.3575L286.968 36.4977L301.542 11.0064H318Z" fill="#151516"/>
</g>
<line x1="347.5" y1="5.96527" x2="347.5" y2="75.9653" stroke="#1C1135"/>
<g clip-path="url(#clip1_2160_1112)">
<path d="M446.799 14.5573L427.822 0.973206C427.822 0.973206 422.591 7.4206 411.765 7.4206C400.938 7.4206 395.727 0.973206 395.727 0.973206L376.75 14.5573C376.75 14.5573 373.911 61.5341 411.785 81.1196C449.638 61.5341 446.799 14.5573 446.799 14.5573Z" fill="#F6B303"/>
<path d="M411.786 81.9305L411.461 81.7683C402.723 77.2471 395.424 70.8808 389.767 62.8722C385.246 56.4654 381.759 49.0042 379.407 40.6916C375.372 26.5397 376.041 14.6384 376.041 14.5168L376.061 14.1721L395.85 0L396.275 0.527145C396.316 0.58797 401.445 6.71096 411.786 6.71096C422.105 6.71096 427.235 0.58797 427.296 0.527145L427.701 0L428.249 0.385222L447.489 14.1721L447.51 14.5168C447.51 14.6384 448.179 26.5397 444.164 40.6916C441.813 49.0042 438.325 56.4654 433.804 62.8722C428.147 70.8808 420.848 77.2471 412.11 81.7683L411.786 81.9305ZM377.44 14.9425C377.379 16.9497 377.176 27.736 380.765 40.3469C384.374 53.0795 392.707 70.3131 411.786 80.3288C430.864 70.3131 439.177 53.0795 442.806 40.3469C446.395 27.736 446.192 16.9497 446.131 14.9425L427.945 1.90583C426.444 3.46699 421.173 8.10993 411.786 8.10993C402.398 8.10993 397.127 3.46699 395.626 1.90583L377.44 14.9425Z" fill="white"/>
<path d="M428.025 3.26428L445.035 15.4494C445.644 40.1442 434.837 66.7447 411.765 79.1529C388.692 66.7447 377.885 40.1442 378.494 15.4494L395.504 3.26428C404.161 11.1309 419.368 11.1309 428.025 3.26428Z" fill="#0E4680"/>
<path d="M428.126 5.33229L443.393 16.2807C443.596 39.8603 433.641 65.1024 411.785 77.3079C389.929 65.1024 379.953 39.8603 380.176 16.2807L395.443 5.33229C400.005 8.96148 405.905 10.7659 411.785 10.7659C422.125 10.7659 428.126 5.33229 428.126 5.33229ZM427.842 0.973206C427.842 0.973206 422.612 7.4206 411.785 7.4206C400.958 7.4206 395.727 0.973206 395.727 0.973206L376.75 14.5573C376.75 14.5573 373.911 61.5341 411.785 81.1196C449.638 61.5341 446.799 14.5573 446.799 14.5573L427.842 0.973206Z" fill="#F6B303"/>
<path d="M411.684 62.0612L412.231 63.5818L413.853 63.6224L412.556 64.5753L413.022 66.1162L411.684 65.2038L410.346 66.1162L410.812 64.5753L409.515 63.6021L411.157 63.5818L411.684 62.0612Z" fill="#F6B303"/>
<path d="M420.908 61.5544L421.436 63.0345L423.037 63.0751L421.76 64.028L422.226 65.5283L420.908 64.6362L419.591 65.5283L420.037 64.0077L418.759 63.0548L420.381 63.0345L420.908 61.5544Z" fill="#F6B303"/>
<path d="M402.661 61.5138L403.189 63.0344L404.831 63.075L403.533 64.0279L404 65.5688L402.661 64.6564L401.303 65.5485L401.769 64.0279L400.472 63.0547L402.114 63.0141L402.661 61.5138Z" fill="#F6B303"/>
<path d="M406.98 65.731L407.507 67.2314L409.149 67.2719L407.852 68.2451L408.318 69.786L406.98 68.8533L405.622 69.7657L406.108 68.2451L404.811 67.2719L406.433 67.2314L406.98 65.731Z" fill="#F6B303"/>
<path d="M416.55 65.731L417.077 67.2314L418.719 67.2719L417.421 68.2451L417.888 69.786L416.55 68.8533L415.191 69.7657L415.657 68.2451L414.36 67.2719L416.002 67.2314L416.55 65.731Z" fill="#F6B303"/>
<path d="M411.765 69.9684L412.292 71.4484L413.894 71.489L412.617 72.4419L413.083 73.9422L411.765 73.0502L410.427 73.9422L410.893 72.4419L409.636 71.489L411.238 71.4484L411.765 69.9684Z" fill="#F6B303"/>
<path d="M411.785 52.9174L412.312 54.438L413.975 54.4582L412.636 55.4314L413.123 56.9723L411.785 56.06L410.426 56.9723L410.913 55.4314L409.595 54.4582L411.237 54.438L411.785 52.9174Z" fill="#F6B303"/>
<path d="M403.959 53.2012L404.425 54.519L405.845 54.5393L404.709 55.3706L405.115 56.6884L403.959 55.8977L402.803 56.6884L403.209 55.3706L402.094 54.519L403.493 54.4988L403.959 53.2012Z" fill="#F6B303"/>
<path d="M419.612 52.9579L420.118 54.4379L421.74 54.4785L420.443 55.4314L420.909 56.9317L419.612 56.0397L418.273 56.9317L418.74 55.4314L417.462 54.4582L419.064 54.4379L419.612 52.9579Z" fill="#F6B303"/>
<path d="M396.154 52.7349L396.681 54.2555L398.323 54.2758L397.025 55.2489L397.492 56.7898L396.133 55.8775L394.795 56.7898L395.261 55.2489L393.964 54.2758L395.606 54.2555L396.154 52.7349Z" fill="#F6B303"/>
<path d="M427.417 52.7753L427.944 54.2554L429.566 54.2959L428.269 55.2489L428.735 56.7492L427.417 55.8571L426.099 56.7492L426.566 55.2489L425.268 54.2757L426.89 54.2554L427.417 52.7753Z" fill="#F6B303"/>
<path d="M399.236 57.1547L399.763 58.6348L401.385 58.6753L400.087 59.6283L400.553 61.1489L399.236 60.2365L397.918 61.1286L398.364 59.6283L397.086 58.6753L398.708 58.6551L399.236 57.1547Z" fill="#F6B303"/>
<path d="M424.254 57.1143L424.802 58.6349L426.444 58.6754L425.126 59.6486L425.592 61.1692L424.254 60.2569L422.896 61.1692L423.382 59.6486L422.064 58.6754L423.707 58.6349L424.254 57.1143Z" fill="#F6B303"/>
<path d="M416.307 57.6617L416.834 59.1823L418.476 59.2228L417.179 60.196L417.645 61.7369L416.287 60.8043L414.928 61.7166L415.415 60.196L414.117 59.2228L415.759 59.1823L416.307 57.6617Z" fill="#F6B303"/>
<path d="M407.588 57.5197L408.115 59.02L409.717 59.0403L408.419 60.0135L408.886 61.5138L407.588 60.6014L406.25 61.4935L406.716 59.9932L405.439 59.0403L407.041 59.02L407.588 57.5197Z" fill="#F6B303"/>
<path d="M400.451 48.1527L400.999 49.6733L402.641 49.6936L401.323 50.6668L401.789 52.2077L400.451 51.2953L399.113 52.1874L399.579 50.6668L398.282 49.6936L399.904 49.6733L400.451 48.1527Z" fill="#F6B303"/>
<path d="M423.038 48.3352L423.565 49.8558L425.207 49.8964L423.889 50.8696L424.376 52.3902L423.018 51.4778L421.679 52.3902L422.146 50.8696L420.848 49.8761L422.49 49.8558L423.038 48.3352Z" fill="#F6B303"/>
<path d="M393.254 48.1932L393.781 49.6936L395.383 49.7341L394.106 50.6668L394.572 52.1671L393.234 51.275L391.916 52.1671L392.382 50.6668L391.105 49.7138L392.707 49.6936L393.254 48.1932Z" fill="#F6B303"/>
<path d="M430.255 48.1527L430.782 49.6733L432.425 49.7139L431.107 50.6871L431.573 52.2077L430.235 51.2953L428.897 52.2077L429.363 50.6668L428.065 49.6936L429.687 49.6733L430.255 48.1527Z" fill="#F6B303"/>
<path d="M408.055 48.5177L408.582 50.0383L410.224 50.0789L408.906 51.0521L409.393 52.5929L408.035 51.6603L406.697 52.5727L407.163 51.0521L405.865 50.0586L407.507 50.0383L408.055 48.5177Z" fill="#F6B303"/>
<path d="M415.455 48.5177L415.982 50.0383L417.624 50.0789L416.306 51.0521L416.793 52.5727L415.435 51.6603L414.096 52.5727L414.563 51.0521L413.265 50.0789L414.907 50.0383L415.455 48.5177Z" fill="#F6B303"/>
<path d="M432.77 43.5909L433.297 45.0913L434.959 45.1318L433.641 46.105L434.108 47.6459L432.77 46.7133L431.431 47.6256L431.877 46.105L430.6 45.1116L432.222 45.0913L432.77 43.5909Z" fill="#F6B303"/>
<path d="M390.699 43.6315L391.226 45.1115L392.848 45.1521L391.571 46.105L392.017 47.6053L390.699 46.693L389.381 47.5851L389.848 46.0847L388.57 45.1318L390.172 45.1115L390.699 43.6315Z" fill="#F6B303"/>
<path d="M425.775 43.5909L426.302 45.1116L427.944 45.1318L426.626 46.105L427.113 47.6459L425.754 46.7133L424.416 47.6459L424.883 46.105L423.585 45.1318L425.227 45.0913L425.775 43.5909Z" fill="#F6B303"/>
<path d="M397.714 43.6112L398.241 45.1115L399.863 45.1521L398.586 46.105L399.032 47.6053L397.714 46.693L396.396 47.5851L396.863 46.105L395.585 45.1318L397.187 45.1115L397.714 43.6112Z" fill="#F6B303"/>
<path d="M404.729 43.6112L405.257 45.1115L406.879 45.1521L405.581 46.0847L406.047 47.6053L404.729 46.693L403.391 47.5851L403.878 46.0847L402.601 45.1318L404.202 45.1115L404.729 43.6112Z" fill="#F6B303"/>
<path d="M418.76 43.5909L419.287 45.1116L420.929 45.1521L419.611 46.105L420.098 47.6459L418.739 46.7335L417.401 47.6459L417.867 46.105L416.57 45.1318L418.212 45.0913L418.76 43.5909Z" fill="#F6B303"/>
<path d="M411.745 43.5909L412.272 45.1116L413.914 45.1318L412.616 46.105L413.083 47.6256L411.745 46.7133L410.386 47.6256L410.873 46.105L409.575 45.1318L411.197 45.1116L411.745 43.5909Z" fill="#F6B303"/>
<path d="M396.944 32.9061H393.112V31.1828L392.686 30.7367L390.639 30.7165L390.172 31.1625V37.7721L390.618 38.1979L392.666 38.2181L393.112 37.7924V36.1501L396.944 36.1704V39.1102L394.694 41.3607H388.571L386.34 39.09V29.8446L388.611 27.6752H394.714L396.944 29.8446V32.9061Z" fill="#F6B303"/>
<path d="M409.312 27.6752V30.7773H408.602L411.643 38.2384H412.454V41.3607H407.102V38.2181H407.568L407.365 37.6099H403.675L403.452 38.2181H403.898V41.3607H398.566V38.2181H399.397L402.479 30.757H401.871V27.6752H409.312ZM404.648 35.0147H406.412L405.54 32.8656L404.648 35.0147Z" fill="#F6B303"/>
<path d="M425.065 35.1971V39.1913L422.835 41.3607H414.218V38.2384H415.07V30.757H414.239V27.6549H422.855L425.065 29.9054V33.3724L424.133 34.2645L425.065 35.1971ZM421.254 36.2514L420.787 35.8054H418.881V38.2586H420.787L421.254 37.8329V36.2514ZM421.254 31.2233L420.808 30.7975H418.902V32.7642H420.808L421.274 32.3181V31.2233H421.254Z" fill="#F6B303"/>
<path d="M436.338 30.8381V39.2116L434.088 41.3607H428.979L426.769 39.1913V35.8865H430.6V37.8735L431.047 38.2992H432.04L432.506 37.8735V30.8178H431.31V27.6752H437.17V30.8381H436.338Z" fill="#F6B303"/>
<path d="M395.586 9.73193L396.113 11.2525L397.755 11.2931L396.457 12.2663L396.924 13.7869L395.586 12.8745L394.227 13.7869L394.694 12.2663L393.396 11.2728L395.038 11.2525L395.586 9.73193Z" fill="#F6B303"/>
<path d="M427.944 9.73193L427.417 11.2525L425.775 11.2728L427.072 12.246L426.606 13.7869L427.944 12.8745L429.303 13.7869L428.836 12.246L430.134 11.2728L428.492 11.2525L427.944 9.73193Z" fill="#F6B303"/>
<path d="M397.126 15.4697L397.654 16.9498L399.255 16.9903L397.958 17.923L398.444 19.4233L397.106 18.5312L395.788 19.4233L396.255 17.923L394.998 16.9701L396.599 16.9498L397.126 15.4697Z" fill="#F6B303"/>
<path d="M385.387 15.4292L385.935 16.9295L387.577 16.9701L386.279 17.9433L386.725 19.4639L385.387 18.5515L384.049 19.4639L384.515 17.923L383.218 16.9498L384.86 16.9295L385.387 15.4292Z" fill="#F6B303"/>
<path d="M420.585 15.4292L420.037 16.9295L418.395 16.9701L419.713 17.9433L419.247 19.4639L420.585 18.5515L421.923 19.4639L421.436 17.923L422.754 16.9701L421.112 16.9295L420.585 15.4292Z" fill="#F6B303"/>
<path d="M438.163 15.4494L437.636 16.9295L436.014 16.97L437.311 17.9229L436.845 19.4435L438.163 18.5312L439.481 19.4233L439.014 17.9229L440.312 16.97L438.69 16.9295L438.163 15.4494Z" fill="#F6B303"/>
<path d="M426.444 15.4697L425.896 16.9498L424.294 16.9903L425.572 17.9433L425.126 19.4436L426.444 18.5312L427.761 19.4436L427.295 17.9433L428.572 16.9903L426.971 16.9498L426.444 15.4697Z" fill="#F6B303"/>
<path d="M391.267 15.4697L391.794 16.9498L393.396 16.9903L392.098 17.923L392.565 19.4233L391.247 18.5312L389.929 19.4233L390.395 17.923L389.138 16.9701L390.74 16.9498L391.267 15.4697Z" fill="#F6B303"/>
<path d="M408.846 15.4901L409.373 16.9498L410.975 16.9904L409.697 17.9433L410.164 19.4234L408.846 18.5313L407.528 19.4234L407.994 17.923L406.737 16.9701L408.319 16.9498L408.846 15.4901Z" fill="#F6B303"/>
<path d="M402.986 15.4697L403.513 16.9498L405.115 16.9903L403.837 17.9433L404.304 19.4436L402.986 18.5312L401.668 19.4436L402.134 17.9433L400.857 16.9701L402.459 16.9498L402.986 15.4697Z" fill="#F6B303"/>
<path d="M432.303 15.4697L431.776 16.9498L430.154 16.9903L431.452 17.923L430.986 19.4436L432.324 18.5312L433.621 19.4233L433.155 17.923L434.432 16.9701L432.831 16.9498L432.303 15.4697Z" fill="#F6B303"/>
<path d="M414.705 15.713L414.238 17.0106L412.839 17.0512L413.954 17.8824L413.569 19.2003L414.705 18.4096L415.881 19.2003L415.455 17.8824L416.59 17.0309L415.171 17.0106L414.705 15.713Z" fill="#F6B303"/>
<path d="M408.846 21.1467L409.373 22.647L410.975 22.6673L409.697 23.6202L410.143 25.1205L408.825 24.2284L407.528 25.1003L407.994 23.6202L406.717 22.6673L408.319 22.6267L408.846 21.1467Z" fill="#F6B303"/>
<path d="M397.248 21.1467L397.775 22.6267L399.377 22.6673L398.099 23.6202L398.545 25.1205L397.248 24.2284L395.93 25.1205L396.376 23.6202L395.099 22.6673L396.7 22.6267L397.248 21.1467Z" fill="#F6B303"/>
<path d="M403.047 21.1467L403.574 22.647L405.176 22.6673L403.899 23.6202L404.345 25.1205L403.027 24.2284L401.729 25.1205L402.196 23.6202L400.898 22.6673L402.52 22.6267L403.047 21.1467Z" fill="#F6B303"/>
<path d="M391.449 21.1264L391.976 22.6267L393.598 22.6876L392.301 23.6405L392.787 25.1611L391.429 24.2487L390.091 25.1611L390.577 23.6405L389.28 22.6673L390.902 22.6267L391.449 21.1264Z" fill="#F6B303"/>
<path d="M414.644 21.1264L415.191 22.6267L416.813 22.6673L415.516 23.6405L415.982 25.1611L414.644 24.2487L413.306 25.1611L413.772 23.6405L412.475 22.6673L414.097 22.6267L414.644 21.1264Z" fill="#F6B303"/>
<path d="M385.651 21.167L386.178 22.6471L387.779 22.6876L386.502 23.6405L386.948 25.1206L385.63 24.2285L384.312 25.1206L384.799 23.6202L383.501 22.6673L385.123 22.6471L385.651 21.167Z" fill="#F6B303"/>
<path d="M420.443 21.167L420.97 22.6471L422.572 22.6876L421.294 23.6405L421.761 25.1206L420.443 24.2285L419.125 25.1206L419.591 23.6202L418.314 22.6673L419.916 22.6471L420.443 21.167Z" fill="#F6B303"/>
<path d="M426.241 21.1264L426.789 22.6267L428.411 22.6673L427.113 23.6405L427.579 25.1611L426.241 24.2487L424.903 25.1611L425.369 23.6405L424.072 22.6673L425.714 22.6267L426.241 21.1264Z" fill="#F6B303"/>
<path d="M432.04 21.167L431.512 22.6268L429.911 22.6876L431.188 23.6405L430.722 25.1206L432.06 24.2285L433.357 25.1206L432.891 23.6202L434.168 22.6673L432.567 22.6268L432.04 21.167Z" fill="#F6B303"/>
<path d="M437.838 21.1264L437.291 22.6267L435.669 22.6673L436.967 23.6405L436.5 25.1611L437.838 24.2487L439.197 25.1611L438.71 23.6405L440.028 22.6673L438.386 22.6267L437.838 21.1264Z" fill="#F6B303"/>
</g>
<defs>
<clipPath id="clip0_2160_1112">
<rect width="318" height="75" fill="white" transform="translate(0 3.46527)"/>
</clipPath>
<clipPath id="clip1_2160_1112">
<rect width="71.5701" height="81.9305" fill="white" transform="translate(376)"/>
</clipPath>
</defs>
</svg>
